<svg id="Capa_1" data-name="Capa 1" xmlns="http://www.w3.org/2000/svg" viewBox="0 0 304.01 390.24"><defs><style>.cls-1{fill:#fff;}</style></defs><title>logoIco</title><path class="cls-1" d="M128.08,353.13c-4.38-33.31-4.89-71.48-5-84.37a48.66,48.66,0,0,0-62.5,0V375.11a37.93,37.93,0,0,0,17,32.61h73.87a99.75,99.75,0,0,1-15.63-24.82A103.89,103.89,0,0,1,128.08,353.13Z" transform="translate(-60.59 -17.48)"/><path class="cls-1" d="M364.59,375.11V268.76a48.66,48.66,0,0,0-62.5,0c-.09,12.89-.6,51.06-5,84.37a103.89,103.89,0,0,1-7.81,29.77,100,100,0,0,1-15.63,24.82h73.87a37.93,37.93,0,0,0,17-32.61Z" transform="translate(-60.59 -17.48)"/><path class="cls-1" d="M258.76,269.47c6.72-31.19,30-54.35,57.53-58.13,24.46-3.36,43.38,9.81,48.3,13.47v-73c-23.76-3-74-8.38-102.63-3.19a61.71,61.71,0,0,0-8.52,2.13c-21.23,7-33.94,24-40.84,35.8-6.9-11.81-19.61-28.82-40.84-35.8a61.71,61.71,0,0,0-8.52-2.13c-28.63-5.19-78.88.22-102.63,3.19v73c4.91-3.66,23.84-16.83,48.29-13.47,27.52,3.78,50.81,26.94,57.53,58.13a214.66,214.66,0,0,1,11.37,63.1,215.36,215.36,0,0,1-11.37,75.15h92.33a214.48,214.48,0,0,1,0-138.25Z" transform="translate(-60.59 -17.48)"/><path class="cls-1" d="M138.08,102.92c11.15,5.26,23.91,4.66,35.51,8.55A59.5,59.5,0,0,1,201.05,130c.43.53.84,1.06,1.25,1.61A57.49,57.49,0,0,1,213,157.81a69.71,69.71,0,0,1,19.18-32.61,68,68,0,0,1,19.18-12.76c2.36-.8,24.91-8.81,30.54-30.49.27-1,6-24.58-7.82-34-11.3-7.7-28-.82-36.93,7.8C224.2,68.23,226.15,86,226.45,88.33c.66-2.7,6.6-25.6,24.5-30.84,9-2.61,19.57-2.07,22.85,8.33,1.44,4.54.34,8.76-1.54,12.94-12.11,26.88-42.78,26.91-54.69,51.05-2.75,5.58-3.37,11.53-4.34,17.6-.41-5-.82-10.13-2.38-14.94a31.62,31.62,0,0,0-1.75-4.31c-3.78-7.55-10.45-14.65-17.23-19.61a46.2,46.2,0,0,0-15.37-7.46c-5.77-1.5-11.76-1.89-17.58-3.19-8.18-1.82-16-8.52-20.58-15.33-5.82-8.7-8.91-21.57-4.58-31.46,7.75-17.69,30.7-22.24,45.94-11.58,11.3,7.9,18.74,20.2,25.09,32.14a95.6,95.6,0,0,1,10.65,36.16c1.83-7.74,5.63-28.47-4.62-50-8.08-17-30-45.06-57.53-39.7-26.7,5.18-47.25,39.51-36.22,64.51C121.13,91.86,129.11,98.69,138.08,102.92Z" transform="translate(-60.59 -17.48)"/></svg>