<?xml version="1.0" encoding="utf-8"?>
<!-- Generator: Adobe Illustrator 23.0.2, SVG Export Plug-In . SVG Version: 6.00 Build 0)  -->
<svg version="1.1" id="Capa_1" xmlns="http://www.w3.org/2000/svg" xmlns:xlink="http://www.w3.org/1999/xlink" x="0px" y="0px"
	 viewBox="0 0 595.3 841.9" style="enable-background:new 0 0 595.3 841.9;" xml:space="preserve">
<style type="text/css">
	.st0{fill:#D71016;}
</style>
<g>
	<g>
		<path class="st0" d="M144.4,714.9c-7.9-69.7-8.9-149.5-9-176.5c-5.3-5.1-27.1-24.8-59.2-23.7c-29,1-48.3,18.2-54.1,23.7
			c0,74.2,0,148.3,0,222.5c-0.2,7.1,0.3,22.2,7.7,38.6c7.5,16.6,18,25.7,23.2,29.7c44.6,0,89.3,0,133.9,0
			c-8-10.8-19.3-28.2-28.3-51.9C149.1,752.3,146.3,731.2,144.4,714.9z"/>
		<path class="st0" d="M573.2,760.9c0-74.2,0-148.3,0-222.5c-5.7-5.5-25.1-22.8-54.1-23.7c-32.2-1.1-53.9,18.6-59.2,23.7
			c-0.2,27-1.1,106.8-9,176.5c-1.8,16.2-4.7,37.4-14.2,62.3c-9,23.7-20.3,41.1-28.3,51.9c44.6,0,89.3,0,133.9,0
			c5.1-3.9,15.7-13.1,23.2-29.7C572.8,783.1,573.3,768,573.2,760.9z"/>
		<path class="st0" d="M381.3,539.9c12.2-65.2,54.4-113.7,104.3-121.6c44.3-7,78.6,20.5,87.5,28.2c0-50.9,0-101.8,0-152.8
			c-43.1-6.2-134.1-17.5-186-6.7c-5.5,1.1-10.3,2.5-15.4,4.4c-38.5,14.6-61.5,50.2-74,74.9c-12.5-24.7-35.5-60.3-74-74.9
			c-5.2-2-10-3.3-15.4-4.4c-51.9-10.9-143,0.5-186,6.7c0,50.9,0,101.8,0,152.8c8.9-7.7,43.2-35.2,87.5-28.2
			c49.9,7.9,92.1,56.4,104.3,121.6c9.3,31.5,19.3,76.8,20.6,132c1.6,67.6-10.3,122.3-20.6,157.2c27.9,0,55.8,0,83.7,0s55.8,0,83.7,0
			c-10.3-34.9-22.2-89.6-20.6-157.2C362.1,616.7,372,571.5,381.3,539.9z"/>
	</g>
	<path class="st0" d="M162.6,191.5c20.2,11,43.3,9.7,64.4,17.9c19.2,7.4,37,20.4,49.8,38.7c0.8,1.1,1.5,2.2,2.3,3.4
		c13.3,20.6,17.7,41.9,19.3,54.9c3.3-14.2,11.8-43.1,34.8-68.2c12.5-13.7,25.3-21.8,34.8-26.7c4.3-1.7,45.2-18.4,55.4-63.8
		c0.5-2.2,11-51.4-14.2-71.2c-20.5-16.1-50.8-1.7-66.9,16.3c-23.4,26.2-19.8,63.4-19.3,68.2c1.2-5.6,12-53.6,44.4-64.5
		c16.2-5.5,35.5-4.3,41.4,17.4c2.6,9.5,0.6,18.3-2.8,27.1c-22,56.2-77.5,56.3-99.1,106.8c-5,11.7-6.1,24.1-7.9,36.8
		c-0.7-10.5-1.5-21.2-4.3-31.3c-0.9-3.1-1.9-6.1-3.2-9c-6.8-15.8-18.9-30.6-31.2-41c-8.3-7-17.9-12.6-27.8-15.6
		c-10.5-3.1-21.3-4-31.9-6.7c-14.8-3.8-29-17.8-37.3-32.1c-10.6-18.2-16.1-45.1-8.3-65.8c14-37,55.7-46.5,83.3-24.2
		c20.5,16.5,34,42.3,45.5,67.2c13.7,29.7,17.9,57.6,19.3,75.6c3.3-16.2,10.2-59.6-8.4-104.6C279.8,61.7,240.1,3,190.1,14.2
		c-48.4,10.8-85.7,82.7-65.7,135C131.8,168.4,146.3,182.7,162.6,191.5z"/>
</g>
</svg>
